<svg width="70" height="70" viewBox="0 0 70 70" fill="none" xmlns="http://www.w3.org/2000/svg">
<rect x="22" y="22" width="38" height="38" rx="8" fill="#F2829A"/>
<path d="M54.8418 46.7634C54.6975 46.7634 54.5678 46.7634 54.4523 46.7487C54.2071 46.7342 53.962 46.7196 53.7168 46.7196C53.5582 46.7196 53.5582 46.7196 53.5437 46.5588L53.3128 43.8984L53.0821 41.6913L52.9235 40.3319L52.7792 39.148L52.5195 37.3062C52.433 36.6485 52.3321 36.0053 52.2023 35.3475C52.1878 35.2453 52.1878 35.2306 52.3033 35.2159C52.7504 35.1282 53.2119 35.0844 53.6735 35.0844H53.8321C53.9042 35.0991 53.9475 35.1429 53.962 35.2306L54.0197 36.2391L54.4235 41.6913L54.6254 44.1908L54.7553 45.6233L54.8418 46.7634ZM37.1581 35.0844H37.4178C37.5476 35.0844 37.5764 35.1282 37.5764 35.2598L37.6919 37.0285L37.9515 40.6973L38.1102 42.6121L38.2255 44.0885L38.4564 46.6318C38.4564 46.7487 38.4419 46.7634 38.3266 46.7634L37.2879 46.7196C37.2158 46.7342 37.1726 46.6904 37.1726 46.6172L37.1293 46.1056C37.086 45.6672 37.0427 45.2286 37.0139 44.7755L36.7831 42.466L36.5379 40.3758L36.3648 38.8995L36.1774 37.5547C36.0908 36.9553 35.9898 36.3415 35.8889 35.7422L35.8167 35.333C35.8024 35.2598 35.8167 35.2306 35.8889 35.2159C36.2927 35.1429 36.6822 35.0699 37.1581 35.0844ZM51.6686 40.9751C52.0292 40.9751 52.0724 40.9898 52.1302 41.3404C52.2023 41.779 52.26 42.2176 52.3033 42.656L52.4619 44.0739L52.7649 47.0849C52.7792 47.1581 52.7649 47.1873 52.6926 47.1873L51.5676 47.3189C51.4522 47.3334 51.4233 47.3189 51.409 47.202L50.7598 43.8401L50.356 41.6036L50.2983 41.2966C50.2839 41.2382 50.3127 41.1944 50.3705 41.1797C50.8176 41.0775 51.2503 41.0043 51.6686 40.9751ZM35.2686 40.9751C35.6581 40.9604 35.7013 41.0043 35.7446 41.3698C35.8456 41.9691 35.9177 42.5537 35.9755 43.153L36.1629 44.907L36.2782 46.0911L36.3793 47.0411C36.3793 47.1726 36.3648 47.202 36.2494 47.2165L35.1822 47.3189C35.0667 47.3334 35.0379 47.3189 35.0234 47.202L34.1435 42.6121L33.9128 41.3113C33.8983 41.2382 33.9272 41.1944 33.9994 41.1797C34.4465 41.0775 34.8648 41.0043 35.2686 40.9751ZM40.7785 45.5063V47.3189V47.3772C40.793 47.4649 40.7497 47.5088 40.6632 47.4943H40.317C40.0718 47.4943 39.8266 47.5088 39.5814 47.5235C39.4516 47.5381 39.4371 47.5381 39.4226 47.3772L39.1919 44.7462L39.0766 43.4454L38.9035 41.4575C38.889 41.2966 38.9179 41.2674 39.0476 41.2527C39.4516 41.2089 39.8554 41.2089 40.2594 41.2235L40.5621 41.2674C40.6776 41.3113 40.692 41.3259 40.692 41.4428L40.7353 42.2321L40.7497 43.1092C40.7642 43.9131 40.7785 44.7024 40.7785 45.5063ZM57.1496 45.594V47.3042V47.3919C57.1496 47.4649 57.1208 47.5088 57.0486 47.4943H56.5294C56.3275 47.4943 56.1255 47.5088 55.938 47.5235C55.8227 47.5381 55.8082 47.5235 55.7937 47.3919L55.491 43.9715L55.3322 42.2759L55.2746 41.4136C55.2601 41.2966 55.2889 41.2674 55.4044 41.2674C55.8803 41.2089 56.3708 41.1944 56.8467 41.2527C57.0343 41.2674 57.0631 41.3259 57.0776 41.5159L57.1208 43.4599L57.1496 45.594ZM51.2503 37.8616C51.3945 37.8616 51.5243 37.8763 51.6253 37.8908C51.6974 37.9055 51.7262 37.9347 51.7407 38.0079L51.9281 40.0396C51.9714 40.215 51.9426 40.2442 51.7695 40.2442L51.2791 40.2734C51.1781 40.2881 51.1348 40.3027 51.1348 40.142L50.9329 38.4901L50.8753 38.0224C50.8608 37.9347 50.8897 37.8908 50.9762 37.8763L51.2503 37.8616ZM34.908 37.8616C35.0234 37.8616 35.1389 37.8763 35.2398 37.8908C35.2975 37.9055 35.3263 37.9347 35.3408 38.0079L35.3984 38.5195L35.5427 40.1126C35.5572 40.2295 35.5572 40.2442 35.4417 40.2442L34.8792 40.2734C34.7639 40.2881 34.7494 40.2734 34.7349 40.1565L34.6051 38.9872L34.4897 38.0079C34.4753 37.9347 34.5042 37.8908 34.5763 37.8908C34.6773 37.8763 34.7927 37.8616 34.908 37.8616ZM40.6632 39.3234V40.3319C40.6776 40.4927 40.6487 40.4927 40.5189 40.4927C40.3314 40.4927 40.1583 40.4782 39.9852 40.4635C39.8699 40.4488 39.8554 40.4488 39.8699 40.3319L39.8266 39.0894C39.8266 38.8118 39.8266 38.534 39.8121 38.2563C39.7978 38.1248 39.8121 38.1101 39.942 38.1101C40.1439 38.1101 40.3458 38.1248 40.5478 38.154C40.6632 38.154 40.6632 38.1833 40.6632 38.3002V39.3234ZM57.0486 39.3379V40.3466C57.0486 40.4782 57.0343 40.4927 56.9045 40.4927L56.3563 40.4635C56.2698 40.4488 56.2265 40.405 56.241 40.3319L56.1977 38.2417C56.1977 38.1248 56.212 38.1101 56.3275 38.1101C56.515 38.1101 56.6881 38.1248 56.8612 38.1394C57.0776 38.154 57.0486 38.1978 57.0486 38.3586V39.3379ZM34.4609 40.1273C34.4753 40.3027 34.4609 40.3319 34.2878 40.3466L33.9416 40.4343C33.8263 40.4782 33.8118 40.4488 33.7975 40.3466L33.4368 38.2855C33.3935 38.154 33.4223 38.1248 33.5521 38.1101L34.057 38.0224C34.1725 38.0079 34.2013 38.0079 34.2013 38.1248C34.2446 38.3732 34.2878 38.6217 34.3166 38.8702L34.4609 40.0396V40.1273ZM49.8079 38.1248C50.0243 38.0809 50.255 38.0517 50.4858 38.0224C50.5579 38.0079 50.5867 38.0517 50.6012 38.1248L50.7165 38.9287C50.7743 39.3234 50.8176 39.7179 50.832 40.1126V40.2295C50.8464 40.2881 50.8176 40.3319 50.7598 40.3466L50.2983 40.4488C50.2262 40.4635 50.1974 40.4343 50.1829 40.3611L49.8079 38.1833V38.1248ZM39.5669 39.7034C39.5669 39.9372 39.5525 40.1565 39.5381 40.3611C39.5381 40.4343 39.5092 40.4635 39.4371 40.4782L38.99 40.522C38.9179 40.5365 38.889 40.4927 38.889 40.4196C38.8602 40.2004 38.8457 39.9957 38.8314 39.7765C38.8024 39.3818 38.7736 38.9726 38.7592 38.5633L38.7304 38.271C38.7159 38.2125 38.7448 38.1833 38.8024 38.1833L39.3938 38.1394C39.4949 38.1394 39.5237 38.154 39.5237 38.271L39.5669 39.7034ZM55.9236 39.4695C55.938 39.7473 55.938 40.0396 55.9236 40.3173C55.938 40.4488 55.9092 40.4782 55.7794 40.4782L55.3755 40.522C55.3034 40.5365 55.2601 40.4927 55.2601 40.4196C55.2456 40.0543 55.2168 39.6742 55.188 39.3087L55.1303 38.2855C55.1158 38.2125 55.1448 38.1833 55.2024 38.1833L55.7794 38.1394C55.8803 38.1394 55.8948 38.154 55.8948 38.271C55.9236 38.6656 55.938 39.0749 55.9236 39.4695ZM33.8983 44.4539C34.1292 44.7317 34.1725 45.0385 34.0715 45.3747C33.9849 45.6964 33.8263 45.974 33.5954 46.208C33.2204 46.6027 32.7878 46.9242 32.3118 47.1726C31.4897 47.6112 30.6386 47.9182 29.7298 48.0789C29.0808 48.2105 28.4317 48.2982 27.7827 48.3421C27.5808 48.3566 27.3789 48.3566 27.1768 48.3566H26.7442C26.6287 48.3566 26.5999 48.3274 26.5854 48.2105L26.4845 46.7926L26.2104 44.0008L25.9076 41.3404L25.7345 39.9227L25.5469 38.5633C25.446 37.8178 25.3162 37.0724 25.1864 36.3269C25.0854 35.7275 24.9845 35.1282 24.8547 34.5291C24.8402 34.4559 24.8547 34.3975 24.9267 34.3828L26.9316 33.5351C27.0614 33.4765 27.1768 33.4327 27.3066 33.4035C27.3932 33.3888 27.4365 33.4182 27.422 33.5059C27.422 33.7397 27.422 33.9736 27.4077 34.2221L27.3932 34.412C27.3789 35.2598 27.3789 36.1076 27.3932 36.97C27.4077 37.7156 27.4509 38.4756 27.4942 39.221C27.5663 40.3904 27.6816 41.5597 27.7971 42.7145C27.7971 42.8314 27.8115 42.8314 27.9413 42.8169C28.1865 42.773 28.4173 42.7583 28.6625 42.7583C29.427 42.7583 30.1914 42.8461 30.9271 43.036C31.5761 43.1969 32.1964 43.4162 32.8166 43.6938C33.1195 43.8401 33.3935 44.0153 33.6532 44.2201C33.7542 44.2931 33.8263 44.3662 33.8983 44.4539ZM50.1541 44.3223C50.457 44.5708 50.5579 44.907 50.4714 45.3017C50.3993 45.6233 50.255 45.901 50.0386 46.1494C49.6925 46.5441 49.2886 46.8511 48.8415 47.0996C47.9761 47.582 47.053 47.9182 46.0721 48.0936C45.5385 48.1958 45.0047 48.2835 44.471 48.3274C44.1681 48.3566 43.8364 48.3712 43.5046 48.3566H43.1151C43.0287 48.3712 42.9855 48.3274 42.9855 48.2397C42.9565 47.8305 42.9277 47.4211 42.8844 47.0119L42.6536 44.5124L42.4084 42.3345L42.1056 39.8788C42.0623 39.455 42.0046 39.0164 41.9325 38.5925L41.6729 36.9553C41.5575 36.1808 41.4132 35.406 41.2546 34.6313L41.2401 34.5291C41.2113 34.4559 41.2401 34.3975 41.3122 34.3828C42.0191 34.0905 42.7113 33.7689 43.4181 33.4912C43.6057 33.4182 43.8364 33.3305 43.822 33.5059C43.7643 34.0467 43.7788 34.5875 43.7643 35.1137C43.7498 35.5521 43.7498 35.9907 43.7788 36.4146V36.7507C43.7788 37.277 43.7931 37.8033 43.8364 38.3147C43.8653 39.0017 43.9086 39.7034 43.9662 40.3904L44.096 41.8667C44.1105 42.1444 44.1393 42.4075 44.1826 42.6853C44.1826 42.8461 44.2114 42.8314 44.3412 42.8169C44.6009 42.773 44.8605 42.7583 45.1202 42.7583C46.0288 42.773 46.9087 42.9191 47.7741 43.1676C48.3655 43.3285 48.928 43.5476 49.4762 43.8401C49.7213 43.9715 49.9377 44.1324 50.1541 44.3223ZM29.2972 46.895C29.5136 46.7634 29.8886 46.5003 30.4077 46.0911C30.9271 45.6672 31.2443 45.3894 31.3742 45.2433C30.5953 44.8924 29.7876 44.5855 28.951 44.3078L29.2972 46.895ZM47.7165 45.3163C47.7597 45.2725 47.7453 45.2433 47.702 45.2139L47.3558 45.0679C46.7501 44.8047 46.1442 44.5708 45.524 44.3662L45.4374 44.337C45.4086 44.3223 45.3798 44.337 45.3366 44.3517L45.6826 46.8803C45.7259 46.8803 45.7548 46.8656 45.7692 46.8511C46.3318 46.4418 46.8942 46.0179 47.4568 45.5648L47.7165 45.3163Z" fill="white"/>
</svg>
